<?xml version="1.0" encoding="UTF-8"?>
<svg xmlns="http://www.w3.org/2000/svg" width="20" height="20" viewBox="0 0 20 20">
  <path fill="#FFF" d="M19.71,6.38 L14.62,1.29 C14.2299625,0.902276405 13.6000375,0.902276405 13.21,1.29 C13.0206873,1.4777666 12.9142017,1.73336246 12.9142017,2 C12.9142017,2.26663754 13.0206873,2.5222334 13.21,2.71 L15,4.54 L9.58,10 L8.58,9 C8.01709438,8.43513644 7.25245443,8.11763429 6.455,8.11763429 C5.65754557,8.11763429 4.89290562,8.43513644 4.33,9 L0.88,12.42 C0.314775014,12.9845172 -0.0019574822,13.7511539 4.92272891e-13,14.55 L4.92272891e-13,18 C4.92272891e-13,19.6568542 1.34314575,21 3,21 L6.45,21 C7.24884615,21.0019575 8.01548276,20.685225 8.58,20.12 L12,16.69 C12.5648636,16.1270944 12.8823657,15.3624544 12.8823657,14.565 C12.8823657,13.7675456 12.5648636,13.0029056 12,12.44 L11,11.44 L16.46,6 L18.29,7.83 C18.4777666,8.01931265 18.7333625,8.12579832 19,8.12579832 C19.2666375,8.12579832 19.5222334,8.01931265 19.71,7.83 C19.9087308,7.64120604 20.0212511,7.37911147 20.0212511,7.105 C20.0212511,6.83088853 19.9087308,6.56879396 19.71,6.38 Z M10.6,15.27 L7.16,18.71 C6.97128117,18.8971865 6.71580298,19.0015368 6.45,19 L3,19 C2.44771525,19 2,18.5522847 2,18 L2,14.55 C1.99846324,14.284197 2.10281349,14.0287188 2.29,13.84 L5.73,10.4 C6.12003745,10.0122764 6.74996255,10.0122764 7.14,10.4 L8.14,11.4 L7.25,12.3 C6.86227641,12.6900375 6.86227641,13.3199625 7.25,13.71 C7.44840955,13.9073505 7.72043523,14.0125337 8,14 C8.26233988,13.9988954 8.51373936,13.8947442 8.7,13.71 L9.6,12.82 L10.6,13.82 C10.7987308,14.008794 10.9112511,14.2708885 10.9112511,14.545 C10.9112511,14.8191115 10.7987308,15.081206 10.6,15.27 Z" transform="translate(0 -1)"/>
</svg>
