<?xml version="1.0" encoding="UTF-8"?>
<svg xmlns="http://www.w3.org/2000/svg" width="20" height="20" viewBox="0 0 20 20">
  <path fill="#FFF" d="M10,12 C10.5522847,12 11,11.5522847 11,11 C11,10.4477153 10.5522847,10 10,10 C9.44771525,10 9,10.4477153 9,11 C9,11.5522847 9.44771525,12 10,12 Z M15,12 C15.5522847,12 16,11.5522847 16,11 C16,10.4477153 15.5522847,10 15,10 C14.4477153,10 14,10.4477153 14,11 C14,11.5522847 14.4477153,12 15,12 Z M10,16 C10.5522847,16 11,15.5522847 11,15 C11,14.4477153 10.5522847,14 10,14 C9.44771525,14 9,14.4477153 9,15 C9,15.5522847 9.44771525,16 10,16 Z M15,16 C15.5522847,16 16,15.5522847 16,15 C16,14.4477153 15.5522847,14 15,14 C14.4477153,14 14,14.4477153 14,15 C14,15.5522847 14.4477153,16 15,16 Z M5,12 C5.55228475,12 6,11.5522847 6,11 C6,10.4477153 5.55228475,10 5,10 C4.44771525,10 4,10.4477153 4,11 C4,11.5522847 4.44771525,12 5,12 Z M17,2 L16,2 L16,1 C16,0.44771525 15.5522847,0 15,0 C14.4477153,0 14,0.44771525 14,1 L14,2 L6,2 L6,1 C6,0.44771525 5.55228475,0 5,0 C4.44771525,0 4,0.44771525 4,1 L4,2 L3,2 C1.34314575,2 0,3.34314575 -4.4408921e-16,5 L-4.4408921e-16,17 C0,18.6568542 1.34314575,20 3,20 L17,20 C18.6568542,20 20,18.6568542 20,17 L20,5 C20,3.34314575 18.6568542,2 17,2 Z M18,17 C18,17.5522847 17.5522847,18 17,18 L3,18 C2.44771525,18 2,17.5522847 2,17 L2,8 L18,8 L18,17 Z M18,6 L2,6 L2,5 C2,4.44771525 2.44771525,4 3,4 L17,4 C17.5522847,4 18,4.44771525 18,5 L18,6 Z M5,16 C5.55228475,16 6,15.5522847 6,15 C6,14.4477153 5.55228475,14 5,14 C4.44771525,14 4,14.4477153 4,15 C4,15.5522847 4.44771525,16 5,16 Z"/>
</svg>
