<?xml version="1.0" encoding="UTF-8"?>
<svg xmlns="http://www.w3.org/2000/svg" width="9" height="12" viewBox="0 0 9 12">
  <path fill="#FFF" d="M52.8914286,0.668571429 C52.6981053,0.537899129 52.4447518,0.537899129 52.2514286,0.668571429 C52.08,0.782857143 48.1428571,3.52571429 48.1428571,7.57142857 C48.1428571,10.017261 50.1255961,12 52.5714286,12 C55.017261,12 57,10.017261 57,7.57142857 C57,3.45714286 53.0571429,0.777142857 52.8914286,0.668571429 Z M52.5714286,10.8571429 C50.7580832,10.8539974 49.2888597,9.38477398 49.2857143,7.57142857 C49.2857143,4.71428571 51.6914286,2.56 52.5714286,1.85714286 C53.4571429,2.54857143 55.8571429,4.71428571 55.8571429,7.57142857 C55.8539974,9.38477398 54.384774,10.8539974 52.5714286,10.8571429 Z" transform="translate(-48)"/>
</svg>
