<?xml version="1.0" encoding="UTF-8"?>
<svg xmlns="http://www.w3.org/2000/svg" xmlns:xlink="http://www.w3.org/1999/xlink" width="19" height="30" viewBox="0 0 19 30">
  <defs>
    <polygon id="logo-a" points="0 .227 18.846 .227 18.846 22.213 0 22.213"/>
    <polygon id="logo-c" points=".128 .179 2.949 .179 2.949 8.077 .128 8.077"/>
  </defs>
  <g fill="none" fill-rule="evenodd">
    <mask id="logo-b" fill="#fff">
      <use xlink:href="#logo-a"/>
    </mask>
    <path fill="#4D8A77" d="M16.1884837,19.509732 C14.6427367,20.9831191 12.7305769,21.8549181 10.7520932,22.12333 C10.3117456,22.1834169 9.86704882,22.2129206 9.42307692,22.2129206 C8.97910503,22.2129206 8.53440828,22.1834169 8.09406065,22.12333 C6.11557692,21.8549181 4.20341716,20.9831191 2.65767012,19.509732 C0.885769231,17.7506625 0,15.4457742 0,13.1398065 C0,10.8345583 0.885769231,8.52931017 2.65767012,6.7706005 L8.04078402,0.779545906 C8.81311391,0.0430322581 10.0330399,0.0430322581 10.8053698,0.779545906 L16.1884837,6.7706005 C19.7319231,10.2883797 19.7319231,15.9919529 16.1884837,19.509732" mask="url(#logo-b)"/>
    <g transform="translate(8.077 21.923)">
      <mask id="logo-d" fill="#fff">
        <use xlink:href="#logo-c"/>
      </mask>
      <path fill="#000" fill-opacity=".079" d="M2.94903846,0.178903846 L2.94903846,6.73075699 C2.94903846,7.47420105 2.31788462,8.07703322 1.53865385,8.07703322 C0.759038462,8.07703322 0.127884615,7.47420105 0.127884615,6.73075699 L0.127884615,0.178903846 C0.595576923,0.240215035 1.06711538,0.27031993 1.53865385,0.27031993 C2.00980769,0.27031993 2.48134615,0.240215035 2.94903846,0.178903846" mask="url(#logo-d)"/>
    </g>
  </g>
</svg>
