<?xml version="1.0" encoding="UTF-8"?>
<svg xmlns="http://www.w3.org/2000/svg" width="79" height="30" viewBox="0 0 79 30">
  <g fill="none" fill-rule="evenodd">
    <path fill="#4D8A77" d="M16.1884837,19.509732 C14.6427367,20.9831191 12.7305769,21.8549181 10.7520932,22.12333 C10.3117456,22.1834169 9.86704882,22.2129206 9.42307692,22.2129206 C8.97910503,22.2129206 8.53440828,22.1834169 8.09406065,22.12333 C6.11557692,21.8549181 4.20341716,20.9831191 2.65767012,19.509732 C0.885769231,17.7506625 0,15.4457742 0,13.1398065 C0,10.8345583 0.885769231,8.52931017 2.65767012,6.7706005 L8.04078402,0.779545906 C8.81311391,0.0430322581 10.0330399,0.0430322581 10.8053698,0.779545906 L16.1884837,6.7706005 C19.7319231,10.2883797 19.7319231,15.9919529 16.1884837,19.509732"/>
    <path fill="#70B493" d="M11.0259615,22.1019808 L11.0259615,28.6538339 C11.0259615,29.397278 10.3948077,30.0001101 9.61557692,30.0001101 C8.83596154,30.0001101 8.20480769,29.397278 8.20480769,28.6538339 L8.20480769,22.1019808 C8.6725,22.163292 9.14403846,22.1933969 9.61557692,22.1933969 C10.0867308,22.1933969 10.5582692,22.163292 11.0259615,22.1019808"/>
    <path fill="#7AC4A0" d="M29.147712,26.896 L27,26.896 L27,10.4826024 L29.102016,10.4826024 L29.102016,12.1837108 L29.17056,12.1837108 C29.5208978,11.6013465 30.0349726,11.1224356 30.7128,10.7469639 C31.3906274,10.3714921 32.1788755,10.183759 33.077568,10.183759 C33.884868,10.183759 34.6198047,10.3293479 35.2824,10.6205301 C35.9449953,10.9117123 36.5161896,11.3178287 36.996,11.8388916 C37.4758104,12.3599544 37.8451827,12.969129 38.104128,13.6664337 C38.3630733,14.3637384 38.492544,15.1108394 38.492544,15.907759 C38.492544,16.7046787 38.3630733,17.4556109 38.104128,18.1605783 C37.8451827,18.8655457 37.4796184,19.4785516 37.007424,19.9996145 C36.5352296,20.5206773 35.9640354,20.930625 35.293824,21.2294699 C34.6236126,21.5283147 33.8696362,21.6777349 33.031872,21.6777349 C32.2550361,21.6777349 31.5239074,21.5091583 30.838464,21.172 C30.1530206,20.8348417 29.61229,20.3597621 29.216256,19.746747 L29.147712,19.746747 L29.147712,26.896 Z M36.276288,15.907759 C36.276288,15.4020216 36.2001288,14.9116168 36.047808,14.4365301 C35.8954872,13.9614434 35.6670095,13.5400018 35.362368,13.1721928 C35.0577265,12.8043837 34.6807382,12.5132059 34.231392,12.2986506 C33.7820458,12.0840953 33.260355,11.9768193 32.666304,11.9768193 C32.1179493,11.9768193 31.6191062,12.0840953 31.16976,12.2986506 C30.7204138,12.5132059 30.3358096,12.8043837 30.015936,13.1721928 C29.6960624,13.5400018 29.4485449,13.9614434 29.273376,14.4365301 C29.0982071,14.9116168 29.010624,15.4096841 29.010624,15.930747 C29.010624,16.4518098 29.0982071,16.9498771 29.273376,17.4249639 C29.4485449,17.9000506 29.6960624,18.3176608 30.015936,18.6778072 C30.3358096,19.0379536 30.7204138,19.3253001 31.16976,19.5398554 C31.6191062,19.7544107 32.1179493,19.8616867 32.666304,19.8616867 C33.260355,19.8616867 33.7820458,19.7505794 34.231392,19.5283614 C34.6807382,19.3061435 35.0577265,19.0111344 35.362368,18.6433253 C35.6670095,18.2755162 35.8954872,17.8540747 36.047808,17.378988 C36.2001288,16.9039012 36.276288,16.4134965 36.276288,15.907759 Z M43.67904,21.3788916 L41.531328,21.3788916 L41.531328,4 L43.67904,4 L43.67904,21.3788916 Z M54.166272,14.3215904 C54.166272,13.5093453 53.9225624,12.9078333 53.435136,12.5170361 C52.9477096,12.126239 52.300356,11.9308434 51.493056,11.9308434 C50.883773,11.9308434 50.3087707,12.0496133 49.768032,12.2871566 C49.2272933,12.5247 48.7741458,12.8273717 48.408576,13.1951807 L47.266176,11.8159036 C47.7992987,11.3101661 48.4504602,10.9117123 49.21968,10.6205301 C49.9888998,10.3293479 50.8152276,10.183759 51.698688,10.183759 C52.4755239,10.183759 53.1495331,10.2948664 53.720736,10.5170843 C54.2919389,10.7393023 54.7603182,11.041974 55.125888,11.4251084 C55.4914578,11.8082429 55.7656311,12.2603347 55.948416,12.7813976 C56.1312009,13.3024604 56.222592,13.8618283 56.222592,14.4595181 L56.222592,19.2180241 C56.222592,19.5858332 56.2340159,19.9727932 56.256864,20.3789157 C56.2797121,20.7850382 56.3215997,21.1183601 56.382528,21.3788916 L54.440448,21.3788916 C54.3185914,20.8578287 54.257664,20.3367737 54.257664,19.8157108 L54.18912,19.8157108 C53.793086,20.3980752 53.294243,20.8501671 52.692576,21.172 C52.090909,21.4938329 51.3788201,21.654747 50.556288,21.654747 C50.1297899,21.654747 49.6842583,21.5972777 49.21968,21.4823373 C48.7551017,21.367397 48.3324179,21.179664 47.951616,20.9191325 C47.5708141,20.6586011 47.2547533,20.3137853 47.003424,19.8846747 C46.7520947,19.4555641 46.626432,18.9268465 46.626432,18.298506 C46.626432,17.4709356 46.8472938,16.8157855 47.289024,16.3330361 C47.7307542,15.8502867 48.3095644,15.4824832 49.025472,15.2296145 C49.7413796,14.9767457 50.5486675,14.8120004 51.44736,14.7353735 C52.3460525,14.6587466 53.2523474,14.6204337 54.166272,14.6204337 L54.166272,14.3215904 Z M53.640768,16.1836145 C53.1076453,16.1836145 52.5554909,16.2066022 51.984288,16.2525783 C51.4130851,16.2985544 50.8952023,16.3905053 50.430624,16.5284337 C49.9660457,16.6663621 49.5814415,16.8732516 49.2768,17.1491084 C48.9721585,17.4249652 48.81984,17.7927688 48.81984,18.2525301 C48.81984,18.5743631 48.8845754,18.8425531 49.014048,19.0571084 C49.1435206,19.2716637 49.3148789,19.4479029 49.528128,19.5858313 C49.7413771,19.7237597 49.9774707,19.8195419 50.236416,19.8731807 C50.4953613,19.9268195 50.7619186,19.9536386 51.036096,19.9536386 C52.041413,19.9536386 52.8144293,19.6509669 53.355168,19.0456145 C53.8959067,18.440262 54.166272,17.6778359 54.166272,16.7583133 L54.166272,16.1836145 L53.640768,16.1836145 Z M61.751808,10.4826024 C61.7822722,10.7584592 61.8051199,11.0687935 61.820352,11.4136145 C61.8355841,11.7584355 61.8432,12.045782 61.8432,12.2756627 L61.911744,12.2756627 C62.0488327,11.9844805 62.2354228,11.7124591 62.47152,11.4595904 C62.7076172,11.2067216 62.9779825,10.984507 63.282624,10.7929398 C63.5872655,10.6013725 63.9223662,10.4519523 64.287936,10.3446747 C64.6535058,10.2373971 65.034302,10.183759 65.430336,10.183759 C66.1310115,10.183759 66.7326695,10.3025289 67.235328,10.5400723 C67.7379865,10.7776156 68.1568623,11.0956125 68.491968,11.4940723 C68.8270737,11.8925321 69.0745912,12.3599491 69.234528,12.8963373 C69.3944648,13.4327256 69.474432,14.0074186 69.474432,14.6204337 L69.474432,21.3788916 L67.32672,21.3788916 L67.32672,15.3330602 C67.32672,14.8886243 67.2924483,14.4671827 67.223904,14.0687229 C67.1553597,13.6702631 67.0296969,13.3177847 66.846912,13.0112771 C66.6641271,12.7047696 66.4128016,12.4595672 66.092928,12.2756627 C65.7730544,12.0917581 65.3617945,11.9998072 64.859136,11.9998072 C64.0061397,11.9998072 63.3092827,12.3254666 62.768544,12.9767952 C62.2278053,13.6281237 61.95744,14.4978259 61.95744,15.5859277 L61.95744,21.3788916 L59.809728,21.3788916 L59.809728,12.8273735 C59.809728,12.5361913 59.8021121,12.1607252 59.78688,11.7009639 C59.7716479,11.2412025 59.7488002,10.8350861 59.718336,10.4826024 L61.751808,10.4826024 Z M78.408,12.2526747 L75.529152,12.2526747 L75.529152,17.9306988 C75.529152,18.58969 75.6510068,19.0609383 75.89472,19.3444578 C76.1384332,19.6279773 76.5268453,19.7697349 77.059968,19.7697349 C77.257985,19.7697349 77.4712309,19.7467472 77.699712,19.7007711 C77.9281931,19.654795 78.1338231,19.5858318 78.316608,19.4938795 L78.385152,21.2639518 C78.1262067,21.3559041 77.8406096,21.4286985 77.528352,21.4823373 C77.2160944,21.5359762 76.8924177,21.5627952 76.557312,21.5627952 C75.5367629,21.5627952 74.7561307,21.2792799 74.215392,20.712241 C73.6746533,20.145202 73.404288,19.2946563 73.404288,18.1605783 L73.404288,12.2526747 L71.32512,12.2526747 L71.32512,10.4826024 L73.404288,10.4826024 L73.404288,7.35624096 L75.529152,7.35624096 L75.529152,10.4826024 L78.408,10.4826024 L78.408,12.2526747 Z"/>
  </g>
</svg>
