<?xml version="1.0" encoding="UTF-8"?>
<svg xmlns="http://www.w3.org/2000/svg" width="14" height="14" viewBox="0 0 14 14">
  <path fill="#BBB" d="M322.805692,24.8197472 L320.209811,22.2433239 C322.302059,19.6330463 321.990384,15.8416632 319.499981,13.608556 C317.009577,11.3754488 313.209075,11.479506 310.844445,13.8455433 C308.479816,16.2115806 308.37582,20.0143448 310.607599,22.5062311 C312.839378,24.9981174 316.628505,25.3099776 319.23723,23.2164838 L321.81212,25.7929071 C321.9435,25.9254478 322.12234,26 322.308906,26 C322.495472,26 322.674312,25.9254478 322.805692,25.7929071 C323.067837,25.5215449 323.067837,25.0911095 322.805692,24.8197472 Z M315.311921,23.2164838 C312.606891,23.2164838 310.414032,21.0223185 310.414032,18.3156785 C310.414032,15.6090385 312.606891,13.4148733 315.311921,13.4148733 C318.016951,13.4148733 320.209811,15.6090385 320.209811,18.3156785 C320.209811,19.6154529 319.693785,20.8619919 318.775252,21.7810712 C317.85672,22.7001504 316.610922,23.2164838 315.311921,23.2164838 Z" transform="translate(-309 -12)"/>
</svg>
