<?xml version="1.0" encoding="UTF-8"?>
<svg xmlns="http://www.w3.org/2000/svg" width="15" height="15" viewBox="0 0 15 15">
  <path fill="#FFF" d="M25.7744169,19.9949322 C25.5212377,19.7118413 25.5212377,19.2881587 25.7744169,19.0050678 L26.7515718,17.9252158 C26.9724703,17.6831727 27.0094617,17.3288875 26.84318,17.0478361 L25.3163756,14.4531917 C25.1518071,14.1725098 24.8223786,14.0273431 24.4995352,14.0932411 L23.0643389,14.378202 C22.6864163,14.4549089 22.3096512,14.2425037 22.1864264,13.8832698 L21.720751,12.5109579 C21.6157281,12.205516 21.3237176,12.0001956 20.9955189,12.0010278 L17.9419099,12.0010278 C17.5997894,11.9834866 17.2876695,12.1919735 17.1785077,12.5109579 L16.7510024,13.8832698 C16.6277776,14.2425037 16.2510125,14.4549089 15.8730898,14.378202 L14.3997235,14.0932411 C14.0946241,14.0508895 13.7935179,14.1928637 13.6363213,14.4531917 L12.1095168,17.0478361 C11.9390751,17.3257263 11.96988,17.6797686 12.185857,17.9252158 L13.1553778,19.0050678 C13.408557,19.2881587 13.408557,19.7118413 13.1553778,19.9949322 L12.185857,21.0747842 C11.96988,21.3202314 11.9390751,21.6742737 12.1095168,21.9521639 L13.6363213,24.5468083 C13.8008897,24.8274902 14.1303182,24.9726569 14.4531617,24.9067589 L15.8883579,24.621798 C16.2662805,24.5450911 16.6430456,24.7574963 16.7662704,25.1167302 L17.2319458,26.4890421 C17.3411077,26.8080265 17.6532275,27.0165134 17.9953481,26.9989722 L21.048957,26.9989722 C21.3771558,26.9998044 21.6691663,26.794484 21.7741892,26.4890421 L22.2398645,25.1167302 C22.3630893,24.7574963 22.7398544,24.5450911 23.1177771,24.621798 L24.5529733,24.9067589 C24.8758168,24.9726569 25.2052453,24.8274902 25.3698137,24.5468083 L26.8966182,21.9521639 C27.0628998,21.6711125 27.0259085,21.3168273 26.8050099,21.0747842 L25.7744169,19.9949322 Z M24.6369476,20.9997944 L25.2476694,21.6747019 L24.2705145,23.3394737 L23.3696998,23.1594984 C22.2316255,22.9309773 21.0996311,23.5755968 20.7359621,24.6592929 L20.4458693,25.4991777 L18.4915595,25.4991777 L18.2167347,24.6442949 C17.8530657,23.5605989 16.7210713,22.9159793 15.582997,23.1445005 L14.6821823,23.3244758 L13.6897594,21.667203 L14.3004812,20.9922955 C15.0780644,20.1383105 15.0780644,18.8466915 14.3004812,17.9927066 L13.6897594,17.3177991 L14.6669143,15.6680252 L15.5677289,15.8480006 C16.7058032,16.0765217 17.8377976,15.4319021 18.2014667,14.3482061 L18.4915595,13.5008223 L20.4458693,13.5008223 L20.7359621,14.3557051 C21.0996311,15.4394011 22.2316255,16.0840207 23.3696998,15.8554995 L24.2705145,15.6755242 L25.2476694,17.340296 L24.6369476,18.0152035 C23.8684276,18.8668539 23.8684276,20.1481441 24.6369476,20.9997944 Z M19.4687144,16.5004111 C17.7822527,16.5004111 16.4151054,17.8433728 16.4151054,19.5 C16.4151054,21.1566272 17.7822527,22.4995889 19.4687144,22.4995889 C21.1551761,22.4995889 22.5223234,21.1566272 22.5223234,19.5 C22.5223234,18.7044596 22.2006048,17.9415024 21.627942,17.3789704 C21.0552792,16.8164383 20.2785818,16.5004111 19.4687144,16.5004111 Z M19.4687144,20.9997944 C18.6254836,20.9997944 17.9419099,20.3283136 17.9419099,19.5 C17.9419099,18.6716864 18.6254836,18.0002056 19.4687144,18.0002056 C20.3119452,18.0002056 20.9955189,18.6716864 20.9955189,19.5 C20.9955189,20.3283136 20.3119452,20.9997944 19.4687144,20.9997944 Z" transform="translate(-12 -12)"/>
</svg>
