<svg xmlns="http://www.w3.org/2000/svg" width="12" height="8" viewBox="0 0 12 8">
  <path fill="#FFF" d="M10.4546313,102.234193 C10.5716117,102.268543 10.6840715,102.31674 10.7896219,102.377761 C11.5450027,102.828603 12.4868512,102.828603 13.242232,102.377761 C13.7173302,102.109046 14.2985195,102.109046 14.7736178,102.377761 C15.5371385,102.814346 16.4746711,102.814346 17.2381918,102.377761 C17.71329,102.109046 18.2944793,102.109046 18.7695775,102.377761 C19.1486788,102.594421 19.5771927,102.70979 20.0138285,102.712751 C20.4356586,102.711882 20.8492764,102.596069 21.2102236,102.377761 C21.3157741,102.31674 21.4282339,102.268543 21.5452143,102.234193 C21.8623747,102.141688 22.0444937,101.809589 21.9519886,101.492428 C21.8594835,101.175268 21.527384,100.993149 21.2102236,101.085654 C21.000489,101.150378 20.7995646,101.240794 20.6120261,101.354843 C20.2240247,101.581741 19.7438125,101.581741 19.3558112,101.354843 C18.5123561,100.881719 17.4834492,100.881719 16.6399942,101.354843 C16.2479518,101.582622 15.7638578,101.582622 15.3718153,101.354843 C14.5283603,100.881719 13.4994534,100.881719 12.6559984,101.354843 C12.267997,101.581741 11.7877848,101.581741 11.3997835,101.354843 C11.2122449,101.240794 11.0113205,101.150378 10.8015859,101.085654 C10.4844255,100.993149 10.152326,101.175268 10.0598209,101.492428 C9.96731578,101.809589 10.1494349,102.141688 10.4665952,102.234193 L10.4546313,102.234193 Z M21.2221876,107.06763 C21.0124529,107.132354 20.8115286,107.22277 20.62399,107.336818 C20.2359887,107.563717 19.7557765,107.563717 19.3677751,107.336818 C18.5243201,106.863695 17.4954132,106.863695 16.6519581,107.336818 C16.2599157,107.564598 15.7758217,107.564598 15.3837793,107.336818 C14.5403243,106.863695 13.5114173,106.863695 12.6679623,107.336818 C12.279961,107.563717 11.7997488,107.563717 11.4117474,107.336818 C11.2242088,107.22277 11.0232845,107.132354 10.8135498,107.06763 C10.4963895,106.975124 10.16429,107.157243 10.0717848,107.474404 C9.97927973,107.791564 10.1613988,108.123664 10.4785592,108.216169 C10.5955396,108.250519 10.7079994,108.298716 10.8135498,108.359736 C11.5689306,108.810579 12.5107791,108.810579 13.2661599,108.359736 C13.7412581,108.091022 14.3224474,108.091022 14.7975457,108.359736 C15.5610664,108.796322 16.498599,108.796322 17.2621197,108.359736 C17.7372179,108.091022 18.3184072,108.091022 18.7935055,108.359736 C19.1726067,108.576397 19.6011206,108.691766 20.0377564,108.694727 C20.4595865,108.693857 20.8732043,108.578044 21.2341515,108.359736 C21.339702,108.298716 21.4521618,108.250519 21.5691422,108.216169 C21.8863026,108.123664 22.0684216,107.791564 21.9759165,107.474404 C21.8834114,107.157243 21.5513119,106.975124 21.2341515,107.06763 L21.2221876,107.06763 Z M21.2221876,104.076642 C21.0124529,104.141366 20.8115286,104.231782 20.62399,104.345831 C20.2359887,104.572729 19.7557765,104.572729 19.3677751,104.345831 C18.5243201,103.872707 17.4954132,103.872707 16.6519581,104.345831 C16.2599157,104.57361 15.7758217,104.57361 15.3837793,104.345831 C14.5403243,103.872707 13.5114173,103.872707 12.6679623,104.345831 C12.279961,104.572729 11.7997488,104.572729 11.4117474,104.345831 C11.2242088,104.231782 11.0232845,104.141366 10.8135498,104.076642 C10.6551511,104.01684 10.4788295,104.026964 10.328316,104.104501 C10.1778024,104.182038 10.067196,104.319726 10.023929,104.483416 C9.97950652,104.635722 9.99740666,104.799436 10.0736917,104.938544 C10.1499766,105.077652 10.2783976,105.180758 10.4307034,105.225181 C10.5476838,105.259531 10.6601436,105.307728 10.765694,105.368748 C11.5210748,105.819591 12.4629233,105.819591 13.2183041,105.368748 C13.6934023,105.100034 14.2745916,105.100034 14.7496899,105.368748 C15.5132106,105.805334 16.4507431,105.805334 17.2142639,105.368748 C17.6893621,105.100034 18.2705514,105.100034 18.7456496,105.368748 C19.1247509,105.585409 19.5532648,105.700778 19.9899006,105.703739 C20.4117307,105.70287 20.8253485,105.587057 21.1862957,105.368748 C21.2918462,105.307728 21.404306,105.259531 21.5212864,105.225181 C21.8384468,105.132676 22.0205658,104.800576 21.9280607,104.483416 C21.8355556,104.166256 21.5034561,103.984137 21.1862957,104.076642 L21.2221876,104.076642 Z" transform="translate(-10 -101)"/>
</svg>
