<?xml version="1.0" encoding="UTF-8"?>
<svg xmlns="http://www.w3.org/2000/svg" width="9" height="12" viewBox="0 0 9 12">
  <path fill="#FFF" d="M41.8914286,0.668571429 C41.6981053,0.537899129 41.4447518,0.537899129 41.2514286,0.668571429 C41.08,0.782857143 37.1428571,3.52571429 37.1428571,7.57142857 C37.1428571,10.017261 39.1255961,12 41.5714286,12 C44.017261,12 46,10.017261 46,7.57142857 C46,3.45714286 42.0571429,0.777142857 41.8914286,0.668571429 Z M38.9137606,9.5 C39.511065,10.3210463 40.4787746,10.8552475 41.5714286,10.8571429 C42.6640825,10.8552475 43.6317921,10.3210463 44.2290966,9.5 L38.9137606,9.5 C38.5197912,8.95845518 38.2869644,8.29212004 38.2857143,7.57142857 C38.2857143,4.71428571 40.6914286,2.56 41.5714286,1.85714286 C42.4571429,2.54857143 44.8571429,4.71428571 44.8571429,7.57142857 C44.8558927,8.29212004 44.623066,8.95845518 44.2290966,9.5 L38.9137606,9.5 Z" transform="translate(-37)"/>
</svg>
