<?xml version="1.0" encoding="UTF-8"?>
<svg xmlns="http://www.w3.org/2000/svg" width="9" height="12" viewBox="0 0 9 12">
  <path fill="#FFF" d="M29.7485714,0.0980042245 C29.5552482,-0.0326680748 29.3018947,-0.0326680748 29.1085714,0.0980042245 C28.9371429,0.212289939 25,2.95514708 25,7.00086137 C25,9.44669383 26.982739,11.4294328 29.4285714,11.4294328 C31.8744039,11.4294328 33.8571429,9.44669383 33.8571429,7.00086137 C33.8571429,2.88657565 29.9142857,0.206575653 29.7485714,0.0980042245 Z M26.1715127,7.4313544 C26.152857,7.29047485 26.1431103,7.14678229 26.1428571,7.00086137 C26.1428571,4.14371851 28.5485714,1.9894328 29.4285714,1.28657565 C30.3142857,1.97800422 32.7142857,4.14371851 32.7142857,7.00086137 C32.7140356,7.14504107 32.7045171,7.28704527 32.6862942,7.42631002 L26.1715127,7.4313544 Z" transform="translate(-25)"/>
</svg>
