<svg xmlns="http://www.w3.org/2000/svg" width="12" height="12" viewBox="0 0 12 12">
  <path fill="#FFF" d="M13.184,108 L12.758,108.426 C12.5253658,108.660022 12.5253658,109.037978 12.758,109.272 C12.9920225,109.504634 13.3699775,109.504634 13.604,109.272 L14.03,108.846 C14.2338661,108.607944 14.2201594,108.253083 13.9985379,108.031462 C13.7769165,107.809841 13.4220562,107.796134 13.184,108 Z M12.8,105 C12.8,104.668629 12.5313708,104.4 12.2,104.4 L11.6,104.4 C11.2686292,104.4 11,104.668629 11,105 C11,105.331371 11.2686292,105.6 11.6,105.6 L12.2,105.6 C12.5313708,105.6 12.8,105.331371 12.8,105 Z M17,100.8 C17.3313708,100.8 17.6,100.531371 17.6,100.2 L17.6,99.6 C17.6,99.2686292 17.3313708,99 17,99 C16.6686292,99 16.4,99.2686292 16.4,99.6 L16.4,100.2 C16.4,100.531371 16.6686292,100.8 17,100.8 Z M13.184,102.03 C13.2957564,102.140846 13.4465961,102.203337 13.604,102.204 C13.7634818,102.204922 13.9167687,102.142312 14.03,102.03 C14.2626342,101.795978 14.2626342,101.418022 14.03,101.184 L13.604,100.758 C13.3659438,100.554134 13.0110835,100.567841 12.7894621,100.789462 C12.5678406,101.011083 12.5541339,101.365944 12.758,101.604 L13.184,102.03 Z M20.384,102.204 C20.5414039,102.203337 20.6922436,102.140846 20.804,102.03 L21.23,101.604 C21.4012257,101.457366 21.4758092,101.227129 21.4230861,101.007949 C21.370363,100.788768 21.1992317,100.617637 20.9800514,100.564914 C20.760871,100.512191 20.5306339,100.586774 20.384,100.758 L20,101.184 C19.7673658,101.418022 19.7673658,101.795978 20,102.03 C20.1057758,102.135217 20.2469577,102.197252 20.396,102.204 L20.384,102.204 Z M22.4,104.4 L21.8,104.4 C21.4686292,104.4 21.2,104.668629 21.2,105 C21.2,105.331371 21.4686292,105.6 21.8,105.6 L22.4,105.6 C22.7313708,105.6 23,105.331371 23,105 C23,104.668629 22.7313708,104.4 22.4,104.4 Z M17,109.2 C16.6686292,109.2 16.4,109.468629 16.4,109.8 L16.4,110.4 C16.4,110.731371 16.6686292,111 17,111 C17.3313708,111 17.6,110.731371 17.6,110.4 L17.6,109.8 C17.6,109.468629 17.3313708,109.2 17,109.2 Z M20.816,108 C20.5817905,107.869726 20.2895868,107.910574 20.1000802,108.10008 C19.9105737,108.289587 19.8697258,108.581791 20,108.816 L20.426,109.242 C20.6600225,109.474634 21.0379775,109.474634 21.272,109.242 C21.5046342,109.007978 21.5046342,108.630022 21.272,108.396 L20.816,108 Z M17,101.7 C15.1774603,101.7 13.7,103.17746 13.7,105 C13.7,106.82254 15.1774603,108.3 17,108.3 C18.8225397,108.3 20.3,106.82254 20.3,105 C20.2966978,103.17883 18.8211701,101.703302 17,101.7 Z M17,107.1 C16.1506293,107.1 15.3848931,106.588351 15.059853,105.803635 C14.7348129,105.018919 14.91448,104.115672 15.5150758,103.515076 C16.1156716,102.91448 17.018919,102.734813 17.8036352,103.059853 C18.5883514,103.384893 19.1,104.150629 19.1,105 C19.1,106.159798 18.159798,107.1 17,107.1 Z" transform="translate(-11 -99)"/>
</svg>
