<svg xmlns="http://www.w3.org/2000/svg" width="11" height="12" viewBox="0 0 11 12">
  <path fill="#FFF" d="M20.71434,102.442247 L17.2857685,99.4365326 C16.6350242,98.8544891 15.6507986,98.8544891 15.0000543,99.4365326 L11.5714828,102.442247 C11.2043082,102.77063 10.9961386,103.241093 11.0000543,103.733675 L11.0000543,108.727961 C11.0000543,109.674735 11.7675661,110.442247 12.71434,110.442247 L19.5714828,110.442247 C20.5182567,110.442247 21.2857685,109.674735 21.2857685,108.727961 L21.2857685,103.727961 C21.2880422,103.237367 21.0800158,102.769308 20.71434,102.442247 Z M20.1429114,108.727961 C20.1429114,109.043552 19.8870741,109.29939 19.5714828,109.29939 L18.4286257,109.29939 L13.8571971,109.29939 L12.71434,109.29939 C12.3987487,109.29939 12.1429114,109.043552 12.1429114,108.727961 L12.1429114,103.727961 C12.1431192,103.563831 12.2138918,103.407715 12.3371971,103.29939 L15.7657685,100.29939 C15.9814864,100.109878 16.3043364,100.109878 16.5200543,100.29939 L19.9486257,103.29939 C20.071931,103.407715 20.1427036,103.563831 20.1429114,103.727961 L20.1429114,108.727961 Z" transform="translate(-11 -99)"/>
</svg>
